<svg width="181" height="33" viewBox="0 0 181 33" fill="none" xmlns="http://www.w3.org/2000/svg">
<path d="M15.9816 26.8228C15.6419 23.0941 16.1806 18.0689 18.3597 15.6342C20.6547 16.1475 25.2446 14.5636 26.9137 11.3513C28.4272 8.43853 28.1528 4.16388 29 3C19.0202 2.99992 17.3645 13.4047 14.5067 21.1967C12.3937 15.4354 5.76235 11.5531 0 13.9212C2.3427 15.5546 3.80345 19.5822 6.97767 19.9427C7.97633 20.0561 9.79 19.9427 10.9846 17.6656C13.8113 19.9815 13.3993 22.79 13.0318 26.8228C12.8835 28.4504 12.3252 29.9984 12.4072 31.2897C12.5249 33.5701 16.4885 33.5701 16.6062 31.2897C16.6882 29.9984 16.1299 28.4504 15.9816 26.8228Z" fill="url(#paint0_linear)"/>
<mask id="path-2-inside-1" fill="white">
<path d="M89.0433 13.512C89.0433 9.07445 89.0433 4.71519 89.0433 0.320709C90.9316 0.320709 92.7503 0.320709 94.6153 0.320709C94.6153 10.3776 94.6153 20.4082 94.6153 30.482C92.7774 30.482 90.9575 30.482 89.0433 30.482C89.0433 29.9407 89.0433 29.3929 89.0433 28.7785C88.8869 28.8554 88.8236 28.8698 88.7824 28.9089C86.6925 30.872 84.2022 31.3652 81.5194 30.7064C77.9817 29.8389 75.853 27.4154 74.9786 23.9339C74.0912 20.4017 74.6879 17.1095 77.0814 14.2724C79.5988 11.288 84.0394 10.4427 87.3577 12.3145C87.9117 12.6263 88.4053 13.0528 89.0433 13.512ZM89.2279 21.4021C89.2319 20.4383 89.113 19.7064 88.8236 19.023C88.1443 17.4174 86.9508 16.4365 85.2174 16.2472C83.5822 16.0686 82.1898 16.6177 81.203 17.973C80.0405 19.5695 79.9048 21.3422 80.5675 23.1697C81.482 25.691 84.3739 26.822 86.7364 25.5866C88.493 24.6697 89.1389 23.0809 89.2279 21.4021Z"/>
<path d="M65.2552 13.4917C65.2552 12.9177 65.2552 12.3895 65.2552 11.8142C67.1488 11.8142 68.9661 11.8142 70.7847 11.8142C70.9281 12.2681 70.9952 28.9447 70.8506 30.4943C69.0255 30.5674 67.1901 30.5048 65.285 30.5296C65.285 29.9309 65.285 29.3961 65.285 28.7334C65.055 28.9147 64.9245 29.0061 64.807 29.1117C63.5529 30.2387 62.0687 30.8074 60.4116 30.9313C55.8857 31.2666 52.5791 28.2861 51.4605 24.7786C50.2438 20.9607 50.7204 17.3813 53.3425 14.2534C55.8352 11.2821 60.263 10.4512 63.5632 12.2968C64.1366 12.6164 64.6429 13.0547 65.2552 13.4917ZM56.3442 21.1694C56.3442 21.7057 56.5767 22.5415 56.8196 23.1793C57.4628 24.8607 58.7015 25.8625 60.4891 26.0425C62.234 26.2186 63.6497 25.5651 64.6417 24.0755C65.8584 22.2481 65.7163 19.4945 64.3317 17.7922C62.6422 15.713 59.364 15.6804 57.6294 17.7231C56.7923 18.7093 56.3442 19.8656 56.3442 21.1694Z"/>
<path d="M151.718 25.9797C153.988 25.9797 156.134 25.9797 158.322 25.9797C158.322 27.4966 158.322 28.9641 158.322 30.4784C152.061 30.4784 145.809 30.4784 139.558 30.4784C139.411 30.0167 139.382 26.7374 139.534 25.9692C141.681 25.9692 143.843 25.9692 146.046 25.9692C146.046 18.9099 146.046 11.9236 146.046 4.86289C143.867 4.86289 141.705 4.86289 139.565 4.86289C139.418 4.32548 139.381 1.27843 139.491 0.395364C139.944 0.258403 150.946 0.229707 151.718 0.378408C151.718 8.86995 151.718 17.3785 151.718 25.9797Z"/>
<path d="M164.337 22.596C164.455 23.9656 165.047 24.9766 166.069 25.6769C167.681 26.7818 169.425 26.7844 171.182 26.0617C171.862 25.7826 172.323 25.2282 172.65 24.5591C174.297 24.5591 175.925 24.5591 177.665 24.5591C177.473 25.1082 177.351 25.6156 177.129 26.0735C176.129 28.1462 174.52 29.5784 172.388 30.3493C169.862 31.2636 167.299 31.2063 164.806 30.2293C162.03 29.1414 160.287 27.0596 159.502 24.1677C158.912 21.9933 158.94 19.8294 159.701 17.6942C161.035 13.9479 164.54 11.4122 168.481 11.3365C170.852 11.2909 172.991 11.9235 174.791 13.5371C176.363 14.947 177.25 16.7524 177.701 18.7963C177.969 20.0106 178.066 21.2394 177.953 22.5712C177.051 22.6195 176.157 22.5882 175.263 22.5947C174.36 22.5999 173.455 22.596 172.551 22.596C171.648 22.596 170.742 22.596 169.839 22.596C168.935 22.596 168.031 22.596 167.126 22.596C166.227 22.596 165.325 22.596 164.337 22.596ZM172.538 19.0468C172.538 18.9373 172.556 18.8498 172.536 18.7728C172.273 17.7594 171.732 16.9376 170.793 16.4614C169.295 15.7023 167.791 15.7623 166.362 16.635C165.474 17.1763 164.876 17.9836 164.547 19.0481C167.239 19.0468 169.875 19.0468 172.538 19.0468Z"/>
<path d="M138.292 18.8446C136.399 18.8446 134.554 18.8446 132.695 18.8446C132.645 18.7677 132.584 18.7011 132.556 18.6242C131.835 16.6741 129.531 15.6372 127.268 16.6455C126.008 17.2063 125.224 18.2147 124.873 19.5477C124.393 21.3766 124.606 23.0944 125.843 24.5774C127.386 26.4271 130.29 26.5328 131.848 24.8005C132.188 24.4222 132.417 23.9435 132.737 23.4543C134.532 23.4543 136.394 23.4543 138.328 23.4543C138.304 23.6644 138.301 23.8523 138.258 24.0322C137.621 26.6958 136.007 28.5898 133.648 29.8459C129.658 31.972 124.552 31.0186 121.543 27.6245C117.442 22.9992 118.64 15.7077 124.001 12.6606C128.058 10.3544 133.086 11.0732 136.217 14.4098C137.248 15.5081 137.918 16.802 138.263 18.2708C138.288 18.3764 138.309 18.4834 138.319 18.5916C138.326 18.6517 138.308 18.7156 138.292 18.8446Z"/>
<path d="M105.694 16.3086C103.517 16.3086 101.372 16.3086 99.1803 16.3086C99.1803 14.7928 99.1803 13.3268 99.1803 11.8123C103.228 11.8123 107.264 11.8123 111.386 11.8123C111.395 12.0523 111.415 12.304 111.415 12.5545C111.416 16.7494 111.416 20.9442 111.416 25.1392C111.416 25.3922 111.416 25.6453 111.416 25.9466C113.649 25.9466 115.794 25.9466 117.923 25.9466C118.087 26.4345 118.126 29.6199 117.988 30.482C111.744 30.482 105.492 30.482 99.2452 30.482C99.1117 30.0006 99.0707 27.0357 99.1893 25.9909C99.8958 25.9362 100.621 25.9727 101.342 25.9662C102.053 25.9597 102.763 25.965 103.474 25.965C104.203 25.965 104.935 25.965 105.653 25.965C105.812 25.4901 105.852 17.189 105.694 16.3086Z"/>
<path d="M48.0231 11.8101C48.0231 13.3219 48.0231 14.7724 48.0231 16.3156C46.9794 16.3338 45.9551 16.322 44.9322 16.3233C43.8782 16.3259 42.8242 16.3233 41.7702 16.3233C40.7421 16.3233 39.7139 16.3233 38.6135 16.3233C38.6135 21.0609 38.6135 25.741 38.6135 30.4003C38.0839 30.5515 33.7517 30.5789 33 30.4499C33 24.2566 33 18.0556 33 11.8101C38.0012 11.8101 42.9779 11.8101 48.0231 11.8101Z"/>
<path d="M108.052 7.36599C105.971 7.36994 104.347 5.74987 104.351 3.67589C104.355 1.63974 105.968 0.0170895 108.006 0.000132536C110.085 -0.0168245 111.725 1.5954 111.734 3.66284C111.744 5.74726 110.138 7.3621 108.052 7.36599Z"/>
</mask>
<path d="M89.0433 13.512C89.0433 9.07445 89.0433 4.71519 89.0433 0.320709C90.9316 0.320709 92.7503 0.320709 94.6153 0.320709C94.6153 10.3776 94.6153 20.4082 94.6153 30.482C92.7774 30.482 90.9575 30.482 89.0433 30.482C89.0433 29.9407 89.0433 29.3929 89.0433 28.7785C88.8869 28.8554 88.8236 28.8698 88.7824 28.9089C86.6925 30.872 84.2022 31.3652 81.5194 30.7064C77.9817 29.8389 75.853 27.4154 74.9786 23.9339C74.0912 20.4017 74.6879 17.1095 77.0814 14.2724C79.5988 11.288 84.0394 10.4427 87.3577 12.3145C87.9117 12.6263 88.4053 13.0528 89.0433 13.512ZM89.2279 21.4021C89.2319 20.4383 89.113 19.7064 88.8236 19.023C88.1443 17.4174 86.9508 16.4365 85.2174 16.2472C83.5822 16.0686 82.1898 16.6177 81.203 17.973C80.0405 19.5695 79.9048 21.3422 80.5675 23.1697C81.482 25.691 84.3739 26.822 86.7364 25.5866C88.493 24.6697 89.1389 23.0809 89.2279 21.4021Z" stroke="#5555FF" stroke-width="2" mask="url(#path-2-inside-1)"/>
<path d="M65.2552 13.4917C65.2552 12.9177 65.2552 12.3895 65.2552 11.8142C67.1488 11.8142 68.9661 11.8142 70.7847 11.8142C70.9281 12.2681 70.9952 28.9447 70.8506 30.4943C69.0255 30.5674 67.1901 30.5048 65.285 30.5296C65.285 29.9309 65.285 29.3961 65.285 28.7334C65.055 28.9147 64.9245 29.0061 64.807 29.1117C63.5529 30.2387 62.0687 30.8074 60.4116 30.9313C55.8857 31.2666 52.5791 28.2861 51.4605 24.7786C50.2438 20.9607 50.7204 17.3813 53.3425 14.2534C55.8352 11.2821 60.263 10.4512 63.5632 12.2968C64.1366 12.6164 64.6429 13.0547 65.2552 13.4917ZM56.3442 21.1694C56.3442 21.7057 56.5767 22.5415 56.8196 23.1793C57.4628 24.8607 58.7015 25.8625 60.4891 26.0425C62.234 26.2186 63.6497 25.5651 64.6417 24.0755C65.8584 22.2481 65.7163 19.4945 64.3317 17.7922C62.6422 15.713 59.364 15.6804 57.6294 17.7231C56.7923 18.7093 56.3442 19.8656 56.3442 21.1694Z" stroke="#5555FF" stroke-width="2" mask="url(#path-2-inside-1)"/>
<path d="M151.718 25.9797C153.988 25.9797 156.134 25.9797 158.322 25.9797C158.322 27.4966 158.322 28.9641 158.322 30.4784C152.061 30.4784 145.809 30.4784 139.558 30.4784C139.411 30.0167 139.382 26.7374 139.534 25.9692C141.681 25.9692 143.843 25.9692 146.046 25.9692C146.046 18.9099 146.046 11.9236 146.046 4.86289C143.867 4.86289 141.705 4.86289 139.565 4.86289C139.418 4.32548 139.381 1.27843 139.491 0.395364C139.944 0.258403 150.946 0.229707 151.718 0.378408C151.718 8.86995 151.718 17.3785 151.718 25.9797Z" stroke="#5555FF" stroke-width="2" mask="url(#path-2-inside-1)"/>
<path d="M164.337 22.596C164.455 23.9656 165.047 24.9766 166.069 25.6769C167.681 26.7818 169.425 26.7844 171.182 26.0617C171.862 25.7826 172.323 25.2282 172.65 24.5591C174.297 24.5591 175.925 24.5591 177.665 24.5591C177.473 25.1082 177.351 25.6156 177.129 26.0735C176.129 28.1462 174.52 29.5784 172.388 30.3493C169.862 31.2636 167.299 31.2063 164.806 30.2293C162.03 29.1414 160.287 27.0596 159.502 24.1677C158.912 21.9933 158.94 19.8294 159.701 17.6942C161.035 13.9479 164.54 11.4122 168.481 11.3365C170.852 11.2909 172.991 11.9235 174.791 13.5371C176.363 14.947 177.25 16.7524 177.701 18.7963C177.969 20.0106 178.066 21.2394 177.953 22.5712C177.051 22.6195 176.157 22.5882 175.263 22.5947C174.36 22.5999 173.455 22.596 172.551 22.596C171.648 22.596 170.742 22.596 169.839 22.596C168.935 22.596 168.031 22.596 167.126 22.596C166.227 22.596 165.325 22.596 164.337 22.596ZM172.538 19.0468C172.538 18.9373 172.556 18.8498 172.536 18.7728C172.273 17.7594 171.732 16.9376 170.793 16.4614C169.295 15.7023 167.791 15.7623 166.362 16.635C165.474 17.1763 164.876 17.9836 164.547 19.0481C167.239 19.0468 169.875 19.0468 172.538 19.0468Z" stroke="#5555FF" stroke-width="2" mask="url(#path-2-inside-1)"/>
<path d="M138.292 18.8446C136.399 18.8446 134.554 18.8446 132.695 18.8446C132.645 18.7677 132.584 18.7011 132.556 18.6242C131.835 16.6741 129.531 15.6372 127.268 16.6455C126.008 17.2063 125.224 18.2147 124.873 19.5477C124.393 21.3766 124.606 23.0944 125.843 24.5774C127.386 26.4271 130.29 26.5328 131.848 24.8005C132.188 24.4222 132.417 23.9435 132.737 23.4543C134.532 23.4543 136.394 23.4543 138.328 23.4543C138.304 23.6644 138.301 23.8523 138.258 24.0322C137.621 26.6958 136.007 28.5898 133.648 29.8459C129.658 31.972 124.552 31.0186 121.543 27.6245C117.442 22.9992 118.64 15.7077 124.001 12.6606C128.058 10.3544 133.086 11.0732 136.217 14.4098C137.248 15.5081 137.918 16.802 138.263 18.2708C138.288 18.3764 138.309 18.4834 138.319 18.5916C138.326 18.6517 138.308 18.7156 138.292 18.8446Z" stroke="#5555FF" stroke-width="2" mask="url(#path-2-inside-1)"/>
<path d="M105.694 16.3086C103.517 16.3086 101.372 16.3086 99.1803 16.3086C99.1803 14.7928 99.1803 13.3268 99.1803 11.8123C103.228 11.8123 107.264 11.8123 111.386 11.8123C111.395 12.0523 111.415 12.304 111.415 12.5545C111.416 16.7494 111.416 20.9442 111.416 25.1392C111.416 25.3922 111.416 25.6453 111.416 25.9466C113.649 25.9466 115.794 25.9466 117.923 25.9466C118.087 26.4345 118.126 29.6199 117.988 30.482C111.744 30.482 105.492 30.482 99.2452 30.482C99.1117 30.0006 99.0707 27.0357 99.1893 25.9909C99.8958 25.9362 100.621 25.9727 101.342 25.9662C102.053 25.9597 102.763 25.965 103.474 25.965C104.203 25.965 104.935 25.965 105.653 25.965C105.812 25.4901 105.852 17.189 105.694 16.3086Z" stroke="#5555FF" stroke-width="2" mask="url(#path-2-inside-1)"/>
<path d="M48.0231 11.8101C48.0231 13.3219 48.0231 14.7724 48.0231 16.3156C46.9794 16.3338 45.9551 16.322 44.9322 16.3233C43.8782 16.3259 42.8242 16.3233 41.7702 16.3233C40.7421 16.3233 39.7139 16.3233 38.6135 16.3233C38.6135 21.0609 38.6135 25.741 38.6135 30.4003C38.0839 30.5515 33.7517 30.5789 33 30.4499C33 24.2566 33 18.0556 33 11.8101C38.0012 11.8101 42.9779 11.8101 48.0231 11.8101Z" stroke="#5555FF" stroke-width="2" mask="url(#path-2-inside-1)"/>
<path d="M108.052 7.36599C105.971 7.36994 104.347 5.74987 104.351 3.67589C104.355 1.63974 105.968 0.0170895 108.006 0.000132536C110.085 -0.0168245 111.725 1.5954 111.734 3.66284C111.744 5.74726 110.138 7.3621 108.052 7.36599Z" stroke="#5555FF" stroke-width="2" mask="url(#path-2-inside-1)"/>
<path d="M92.0433 15.512C92.0433 11.0745 92.0433 6.71519 92.0433 2.32071C93.9316 2.32071 95.7503 2.32071 97.6153 2.32071C97.6153 12.3776 97.6153 22.4082 97.6153 32.482C95.7774 32.482 93.9575 32.482 92.0433 32.482C92.0433 31.9407 92.0433 31.3929 92.0433 30.7785C91.8869 30.8554 91.8236 30.8698 91.7824 30.9089C89.6925 32.872 87.2022 33.3652 84.5194 32.7064C80.9817 31.8389 78.853 29.4154 77.9786 25.9339C77.0912 22.4017 77.6879 19.1095 80.0814 16.2724C82.5988 13.288 87.0394 12.4427 90.3577 14.3145C90.9117 14.6263 91.4053 15.0528 92.0433 15.512ZM92.2279 23.4021C92.2319 22.4383 92.113 21.7064 91.8236 21.023C91.1443 19.4174 89.9508 18.4365 88.2174 18.2472C86.5822 18.0686 85.1898 18.6177 84.203 19.973C83.0405 21.5695 82.9048 23.3422 83.5675 25.1697C84.482 27.691 87.3739 28.822 89.7364 27.5866C91.493 26.6697 92.1389 25.0809 92.2279 23.4021Z" fill="white"/>
<path d="M68.2552 15.4917C68.2552 14.9177 68.2552 14.3895 68.2552 13.8142C70.1488 13.8142 71.9661 13.8142 73.7847 13.8142C73.9281 14.2681 73.9952 30.9447 73.8506 32.4943C72.0255 32.5674 70.1901 32.5048 68.285 32.5296C68.285 31.9309 68.285 31.3961 68.285 30.7334C68.055 30.9147 67.9245 31.0061 67.807 31.1117C66.5529 32.2387 65.0687 32.8074 63.4116 32.9313C58.8857 33.2666 55.5791 30.2861 54.4605 26.7786C53.2438 22.9607 53.7204 19.3813 56.3425 16.2534C58.8352 13.2821 63.263 12.4512 66.5632 14.2968C67.1366 14.6164 67.6429 15.0547 68.2552 15.4917ZM59.3442 23.1694C59.3442 23.7057 59.5767 24.5415 59.8196 25.1793C60.4628 26.8607 61.7015 27.8625 63.4891 28.0425C65.234 28.2186 66.6497 27.5651 67.6417 26.0755C68.8584 24.2481 68.7163 21.4945 67.3317 19.7922C65.6422 17.713 62.364 17.6804 60.6294 19.7231C59.7923 20.7093 59.3442 21.8656 59.3442 23.1694Z" fill="white"/>
<path d="M154.718 27.9797C156.988 27.9797 159.134 27.9797 161.322 27.9797C161.322 29.4966 161.322 30.9641 161.322 32.4784C155.061 32.4784 148.809 32.4784 142.558 32.4784C142.411 32.0167 142.382 28.7374 142.534 27.9692C144.681 27.9692 146.843 27.9692 149.046 27.9692C149.046 20.9099 149.046 13.9236 149.046 6.86289C146.867 6.86289 144.705 6.86289 142.565 6.86289C142.418 6.32548 142.381 3.27843 142.491 2.39536C142.944 2.2584 153.946 2.22971 154.718 2.37841C154.718 10.87 154.718 19.3785 154.718 27.9797Z" fill="white"/>
<path d="M167.337 24.596C167.455 25.9656 168.047 26.9766 169.069 27.6769C170.681 28.7818 172.425 28.7844 174.182 28.0617C174.862 27.7826 175.323 27.2282 175.65 26.5591C177.297 26.5591 178.925 26.5591 180.665 26.5591C180.473 27.1082 180.351 27.6156 180.129 28.0735C179.129 30.1462 177.52 31.5784 175.388 32.3493C172.862 33.2636 170.299 33.2063 167.806 32.2293C165.03 31.1414 163.287 29.0596 162.502 26.1677C161.912 23.9933 161.94 21.8294 162.701 19.6942C164.035 15.9479 167.54 13.4122 171.481 13.3365C173.852 13.2909 175.991 13.9235 177.791 15.5371C179.363 16.947 180.25 18.7524 180.701 20.7963C180.969 22.0106 181.066 23.2394 180.953 24.5712C180.051 24.6195 179.157 24.5882 178.263 24.5947C177.36 24.5999 176.455 24.596 175.551 24.596C174.648 24.596 173.742 24.596 172.839 24.596C171.935 24.596 171.031 24.596 170.126 24.596C169.227 24.596 168.325 24.596 167.337 24.596ZM175.538 21.0468C175.538 20.9373 175.556 20.8498 175.536 20.7728C175.273 19.7594 174.732 18.9376 173.793 18.4614C172.295 17.7023 170.791 17.7623 169.362 18.635C168.474 19.1763 167.876 19.9836 167.547 21.0481C170.239 21.0468 172.875 21.0468 175.538 21.0468Z" fill="white"/>
<path d="M141.292 20.8446C139.399 20.8446 137.554 20.8446 135.695 20.8446C135.645 20.7677 135.584 20.7011 135.556 20.6242C134.835 18.6741 132.531 17.6372 130.268 18.6455C129.008 19.2063 128.224 20.2147 127.873 21.5477C127.393 23.3766 127.606 25.0944 128.843 26.5774C130.386 28.4271 133.29 28.5328 134.848 26.8005C135.188 26.4222 135.417 25.9435 135.737 25.4543C137.532 25.4543 139.394 25.4543 141.328 25.4543C141.304 25.6644 141.301 25.8523 141.258 26.0322C140.621 28.6958 139.007 30.5898 136.648 31.8459C132.658 33.972 127.552 33.0186 124.543 29.6245C120.442 24.9992 121.64 17.7077 127.001 14.6606C131.058 12.3544 136.086 13.0732 139.217 16.4098C140.248 17.5081 140.918 18.802 141.263 20.2708C141.288 20.3764 141.309 20.4834 141.319 20.5916C141.326 20.6517 141.308 20.7156 141.292 20.8446Z" fill="white"/>
<path d="M108.694 18.3086C106.517 18.3086 104.372 18.3086 102.18 18.3086C102.18 16.7928 102.18 15.3268 102.18 13.8123C106.228 13.8123 110.264 13.8123 114.386 13.8123C114.395 14.0523 114.415 14.304 114.415 14.5545C114.416 18.7494 114.416 22.9442 114.416 27.1392C114.416 27.3922 114.416 27.6453 114.416 27.9466C116.649 27.9466 118.794 27.9466 120.923 27.9466C121.087 28.4345 121.126 31.6199 120.988 32.482C114.744 32.482 108.492 32.482 102.245 32.482C102.112 32.0006 102.071 29.0357 102.189 27.9909C102.896 27.9362 103.621 27.9727 104.342 27.9662C105.053 27.9597 105.763 27.965 106.474 27.965C107.203 27.965 107.935 27.965 108.653 27.965C108.812 27.4901 108.852 19.189 108.694 18.3086Z" fill="white"/>
<path d="M51.0231 13.8101C51.0231 15.3219 51.0231 16.7724 51.0231 18.3156C49.9794 18.3338 48.9551 18.322 47.9322 18.3233C46.8782 18.3259 45.8242 18.3233 44.7702 18.3233C43.7421 18.3233 42.7139 18.3233 41.6135 18.3233C41.6135 23.0609 41.6135 27.741 41.6135 32.4003C41.0839 32.5515 36.7517 32.5789 36 32.4499C36 26.2566 36 20.0556 36 13.8101C41.0012 13.8101 45.9779 13.8101 51.0231 13.8101Z" fill="white"/>
<path d="M111.052 9.36599C108.971 9.36994 107.347 7.74987 107.351 5.67589C107.355 3.63974 108.968 2.01709 111.006 2.00013C113.085 1.98318 114.725 3.5954 114.734 5.66284C114.744 7.74726 113.138 9.3621 111.052 9.36599Z" fill="white"/>
<defs>
<linearGradient id="paint0_linear" x1="9.95098" y1="11.5096" x2="22.4573" y2="35.1592" gradientUnits="userSpaceOnUse">
<stop stop-color="#FF55FF"/>
<stop offset="1" stop-color="#5555FF"/>
</linearGradient>
</defs>
</svg>
